<svg xmlns="http://www.w3.org/2000/svg" xmlns:xlink="http://www.w3.org/1999/xlink" width="500" zoomAndPan="magnify" viewBox="0 0 375 374.999991" height="500" preserveAspectRatio="xMidYMid meet" version="1.2"><defs><linearGradient x1="0" gradientTransform="matrix(0.75,0,0,0.75,0.0000045,0)" y1="250" x2="499.999979" gradientUnits="userSpaceOnUse" y2="250" id="1d15cc97ff"><stop style="stop-color:#0097b2;stop-opacity:1;" offset="0"/><stop style="stop-color:#0097b2;stop-opacity:1;" offset="0.0078125"/><stop style="stop-color:#0198b1;stop-opacity:1;" offset="0.015625"/><stop style="stop-color:#0298b0;stop-opacity:1;" offset="0.0234375"/><stop style="stop-color:#0399af;stop-opacity:1;" offset="0.03125"/><stop style="stop-color:#0499af;stop-opacity:1;" offset="0.0390625"/><stop style="stop-color:#059aae;stop-opacity:1;" offset="0.046875"/><stop style="stop-color:#069aad;stop-opacity:1;" offset="0.0546875"/><stop style="stop-color:#079bad;stop-opacity:1;" offset="0.0625"/><stop style="stop-color:#089bac;stop-opacity:1;" offset="0.0703125"/><stop style="stop-color:#099cab;stop-opacity:1;" offset="0.078125"/><stop style="stop-color:#0a9cab;stop-opacity:1;" offset="0.0859375"/><stop style="stop-color:#0b9daa;stop-opacity:1;" offset="0.09375"/><stop style="stop-color:#0c9da9;stop-opacity:1;" offset="0.101562"/><stop style="stop-color:#0d9ea8;stop-opacity:1;" offset="0.109375"/><stop style="stop-color:#0e9ea8;stop-opacity:1;" offset="0.117188"/><stop style="stop-color:#0f9fa7;stop-opacity:1;" offset="0.125"/><stop style="stop-color:#109fa6;stop-opacity:1;" offset="0.132812"/><stop style="stop-color:#11a0a6;stop-opacity:1;" offset="0.140625"/><stop style="stop-color:#12a1a5;stop-opacity:1;" offset="0.148437"/><stop style="stop-color:#13a1a4;stop-opacity:1;" offset="0.15625"/><stop style="stop-color:#14a2a3;stop-opacity:1;" offset="0.164062"/><stop style="stop-color:#15a2a3;stop-opacity:1;" offset="0.171875"/><stop style="stop-color:#16a3a2;stop-opacity:1;" offset="0.179687"/><stop style="stop-color:#17a3a1;stop-opacity:1;" offset="0.1875"/><stop style="stop-color:#18a4a1;stop-opacity:1;" offset="0.195312"/><stop style="stop-color:#19a4a0;stop-opacity:1;" offset="0.203125"/><stop style="stop-color:#1aa59f;stop-opacity:1;" offset="0.210938"/><stop style="stop-color:#1ba59e;stop-opacity:1;" offset="0.21875"/><stop style="stop-color:#1ca69e;stop-opacity:1;" offset="0.226562"/><stop style="stop-color:#1da69d;stop-opacity:1;" offset="0.234375"/><stop style="stop-color:#1ea79c;stop-opacity:1;" offset="0.242188"/><stop style="stop-color:#1fa79c;stop-opacity:1;" offset="0.25"/><stop style="stop-color:#20a89b;stop-opacity:1;" offset="0.257812"/><stop style="stop-color:#21a89a;stop-opacity:1;" offset="0.265625"/><stop style="stop-color:#22a999;stop-opacity:1;" offset="0.273437"/><stop style="stop-color:#23a999;stop-opacity:1;" offset="0.28125"/><stop style="stop-color:#24aa98;stop-opacity:1;" offset="0.289062"/><stop style="stop-color:#25aa97;stop-opacity:1;" offset="0.296875"/><stop style="stop-color:#26ab97;stop-opacity:1;" offset="0.304687"/><stop style="stop-color:#27ab96;stop-opacity:1;" offset="0.3125"/><stop style="stop-color:#28ac95;stop-opacity:1;" offset="0.320312"/><stop style="stop-color:#29ac94;stop-opacity:1;" offset="0.328125"/><stop style="stop-color:#2aad94;stop-opacity:1;" offset="0.335937"/><stop style="stop-color:#2bad93;stop-opacity:1;" offset="0.34375"/><stop style="stop-color:#2cae92;stop-opacity:1;" offset="0.351562"/><stop style="stop-color:#2dae92;stop-opacity:1;" offset="0.359375"/><stop style="stop-color:#2eaf91;stop-opacity:1;" offset="0.367187"/><stop style="stop-color:#2faf90;stop-opacity:1;" offset="0.375"/><stop style="stop-color:#30b08f;stop-opacity:1;" offset="0.382812"/><stop style="stop-color:#31b08f;stop-opacity:1;" offset="0.390625"/><stop style="stop-color:#32b18e;stop-opacity:1;" offset="0.398438"/><stop style="stop-color:#33b28d;stop-opacity:1;" offset="0.40625"/><stop style="stop-color:#34b28d;stop-opacity:1;" offset="0.414062"/><stop style="stop-color:#35b38c;stop-opacity:1;" offset="0.421875"/><stop style="stop-color:#36b38b;stop-opacity:1;" offset="0.429688"/><stop style="stop-color:#37b48b;stop-opacity:1;" offset="0.4375"/><stop style="stop-color:#38b48a;stop-opacity:1;" offset="0.445312"/><stop style="stop-color:#39b589;stop-opacity:1;" offset="0.453125"/><stop style="stop-color:#3ab588;stop-opacity:1;" offset="0.460938"/><stop style="stop-color:#3bb688;stop-opacity:1;" offset="0.46875"/><stop style="stop-color:#3cb687;stop-opacity:1;" offset="0.476562"/><stop style="stop-color:#3db786;stop-opacity:1;" offset="0.484375"/><stop style="stop-color:#3eb786;stop-opacity:1;" offset="0.492188"/><stop style="stop-color:#3eb885;stop-opacity:1;" offset="0.5"/><stop style="stop-color:#3fb884;stop-opacity:1;" offset="0.507812"/><stop style="stop-color:#40b983;stop-opacity:1;" offset="0.515625"/><stop style="stop-color:#41b983;stop-opacity:1;" offset="0.523437"/><stop style="stop-color:#42ba82;stop-opacity:1;" offset="0.53125"/><stop style="stop-color:#43ba81;stop-opacity:1;" offset="0.539062"/><stop style="stop-color:#44bb81;stop-opacity:1;" offset="0.546875"/><stop style="stop-color:#45bb80;stop-opacity:1;" offset="0.554687"/><stop style="stop-color:#46bc7f;stop-opacity:1;" offset="0.5625"/><stop style="stop-color:#47bc7e;stop-opacity:1;" offset="0.570312"/><stop style="stop-color:#48bd7e;stop-opacity:1;" offset="0.578125"/><stop style="stop-color:#49bd7d;stop-opacity:1;" offset="0.585937"/><stop style="stop-color:#4abe7c;stop-opacity:1;" offset="0.59375"/><stop style="stop-color:#4bbe7c;stop-opacity:1;" offset="0.601562"/><stop style="stop-color:#4cbf7b;stop-opacity:1;" offset="0.609375"/><stop style="stop-color:#4dbf7a;stop-opacity:1;" offset="0.617187"/><stop style="stop-color:#4ec079;stop-opacity:1;" offset="0.625"/><stop style="stop-color:#4fc079;stop-opacity:1;" offset="0.632812"/><stop style="stop-color:#50c178;stop-opacity:1;" offset="0.640625"/><stop style="stop-color:#51c277;stop-opacity:1;" offset="0.648437"/><stop style="stop-color:#52c277;stop-opacity:1;" offset="0.65625"/><stop style="stop-color:#53c376;stop-opacity:1;" offset="0.664062"/><stop style="stop-color:#54c375;stop-opacity:1;" offset="0.671875"/><stop style="stop-color:#55c474;stop-opacity:1;" offset="0.679687"/><stop style="stop-color:#56c474;stop-opacity:1;" offset="0.6875"/><stop style="stop-color:#57c573;stop-opacity:1;" offset="0.695312"/><stop style="stop-color:#58c572;stop-opacity:1;" offset="0.703125"/><stop style="stop-color:#59c672;stop-opacity:1;" offset="0.710937"/><stop style="stop-color:#5ac671;stop-opacity:1;" offset="0.71875"/><stop style="stop-color:#5bc770;stop-opacity:1;" offset="0.726562"/><stop style="stop-color:#5cc76f;stop-opacity:1;" offset="0.734375"/><stop style="stop-color:#5dc86f;stop-opacity:1;" offset="0.742187"/><stop style="stop-color:#5ec86e;stop-opacity:1;" offset="0.75"/><stop style="stop-color:#5fc96d;stop-opacity:1;" offset="0.757812"/><stop style="stop-color:#60c96d;stop-opacity:1;" offset="0.765625"/><stop style="stop-color:#61ca6c;stop-opacity:1;" offset="0.773438"/><stop style="stop-color:#62ca6b;stop-opacity:1;" offset="0.78125"/><stop style="stop-color:#63cb6b;stop-opacity:1;" offset="0.789062"/><stop style="stop-color:#64cb6a;stop-opacity:1;" offset="0.796875"/><stop style="stop-color:#65cc69;stop-opacity:1;" offset="0.804688"/><stop style="stop-color:#66cc68;stop-opacity:1;" offset="0.8125"/><stop style="stop-color:#67cd68;stop-opacity:1;" offset="0.820312"/><stop style="stop-color:#68cd67;stop-opacity:1;" offset="0.828125"/><stop style="stop-color:#69ce66;stop-opacity:1;" offset="0.835938"/><stop style="stop-color:#6ace66;stop-opacity:1;" offset="0.84375"/><stop style="stop-color:#6bcf65;stop-opacity:1;" offset="0.851562"/><stop style="stop-color:#6ccf64;stop-opacity:1;" offset="0.859375"/><stop style="stop-color:#6dd063;stop-opacity:1;" offset="0.867188"/><stop style="stop-color:#6ed063;stop-opacity:1;" offset="0.875"/><stop style="stop-color:#6fd162;stop-opacity:1;" offset="0.882812"/><stop style="stop-color:#70d261;stop-opacity:1;" offset="0.890625"/><stop style="stop-color:#71d261;stop-opacity:1;" offset="0.898438"/><stop style="stop-color:#72d360;stop-opacity:1;" offset="0.90625"/><stop style="stop-color:#73d35f;stop-opacity:1;" offset="0.914062"/><stop style="stop-color:#74d45e;stop-opacity:1;" offset="0.921875"/><stop style="stop-color:#75d45e;stop-opacity:1;" offset="0.929688"/><stop style="stop-color:#76d55d;stop-opacity:1;" offset="0.9375"/><stop style="stop-color:#77d55c;stop-opacity:1;" offset="0.945312"/><stop style="stop-color:#78d65c;stop-opacity:1;" offset="0.953125"/><stop style="stop-color:#79d65b;stop-opacity:1;" offset="0.960938"/><stop style="stop-color:#7ad75a;stop-opacity:1;" offset="0.96875"/><stop style="stop-color:#7bd759;stop-opacity:1;" offset="0.976562"/><stop style="stop-color:#7cd859;stop-opacity:1;" offset="0.984375"/><stop style="stop-color:#7cd858;stop-opacity:1;" offset="0.992188"/><stop style="stop-color:#7dd957;stop-opacity:1;" offset="1"/></linearGradient><filter x="0%" y="0%" width="100%" filterUnits="objectBoundingBox" id="4a41ccfa0f" height="100%"><feColorMatrix values="0 0 0 0 1 0 0 0 0 1 0 0 0 0 1 0 0 0 1 0" type="matrix" in="SourceGraphic"/></filter><clipPath id="6a37da66b5"><path d="M 0 271.617188 L 218.757812 271.617188 L 218.757812 375 L 0 375 Z M 0 271.617188 "/></clipPath><clipPath id="0f2724b22a"><path d="M 230.054688 318.488281 L 375 318.488281 L 375 375 L 230.054688 375 Z M 230.054688 318.488281 "/></clipPath><clipPath id="3f04e818db"><rect x="0" width="375" y="0" height="375"/></clipPath><clipPath id="24f6a1b1ec"><path d="M 161 202 L 243 202 L 243 341.15625 L 161 341.15625 Z M 161 202 "/></clipPath><clipPath id="530883d40b"><path d="M 20.960938 115 L 98 115 L 98 117 L 20.960938 117 Z M 20.960938 115 "/></clipPath><clipPath id="5751f46400"><path d="M 153 91 L 330.710938 91 L 330.710938 176 L 153 176 Z M 153 91 "/></clipPath></defs><g id="4697dcea82"><rect x="0" width="375" y="0" height="374.999991" style="fill:url(#1d15cc97ff);stroke:none;"/><g mask="url(#42851074d6)" transform="matrix(1,0,0,1,0,0)"><g clip-path="url(#3f04e818db)"><path style=" stroke:none;fill-rule:nonzero;fill:#2666b9;fill-opacity:1;" d="M 366.304688 180.371094 C 318.488281 127.082031 253.070312 66.957031 170.066406 0 L 377.847656 0 L 377.847656 381.011719 L -3.167969 381.011719 L -3.167969 176.210938 C 16.351562 88.261719 90.066406 51.207031 131.609375 60.851562 C 133.554688 56.859375 135.753906 52.523438 141.332031 47.277344 C 164.792969 5.140625 244.613281 49.535156 216.007812 95.714844 C 231.019531 104.492188 241.664062 129.746094 249.996094 165.394531 C 255.097656 165.960938 259.058594 183.515625 257.230469 190.75 C 273.839844 187.230469 309.070312 181.886719 366.304688 180.371094 "/><path style=" stroke:none;fill-rule:evenodd;fill:#2666b9;fill-opacity:1;" d="M 295.886719 102.085938 L 255.734375 191.953125 L 270.394531 192.589844 L 308.632812 107.820312 L 295.886719 102.085938 "/><path style=" stroke:none;fill-rule:evenodd;fill:#ffffff;fill-opacity:1;" d="M 211.757812 91.171875 C 233.230469 40.292969 165.0625 18.566406 144.335938 47.84375 C 166.859375 72.535156 189.332031 86.980469 211.757812 91.171875 "/><path style=" stroke:none;fill-rule:evenodd;fill:#ffffff;fill-opacity:1;" d="M 210.535156 96.164062 C 198.125 94.394531 184.1875 88.066406 163.9375 74.914062 C 164.15625 91.230469 169.347656 107.164062 189.449219 107.820312 C 208.933594 108.460938 206.277344 111.636719 212.457031 116.210938 C 212.941406 112.125 213.375 104.941406 210.535156 96.164062 "/><path style=" stroke:none;fill-rule:evenodd;fill:#ffffff;fill-opacity:1;" d="M 194.082031 115.9375 L 189.628906 135.6875 C 186.703125 137.085938 184.023438 136.726562 181.597656 134.601562 L 176.285156 139.917969 L 174.332031 137.96875 L 165.738281 136.011719 C 167.257812 139.132812 170.339844 140.863281 174.984375 141.21875 C 175.4375 145.242188 171.996094 147.832031 163.917969 142.417969 C 164.527344 144.125 166.230469 146.574219 169.167969 147.832031 C 166.921875 159.769531 154.773438 157.988281 141.386719 134.515625 C 136.769531 125.53125 134.984375 113.382812 136.023438 98.074219 C 121.679688 92.992188 149.027344 46.996094 147.273438 82.835938 L 150.011719 88.8125 C 151.65625 86.144531 155.945312 84.203125 159.695312 84.46875 C 161.574219 90.003906 163.074219 96.988281 169.894531 102.929688 L 165.683594 105.230469 L 176.578125 115.253906 L 186.449219 114.308594 L 184.390625 123.195312 L 189.117188 114.308594 L 194.082031 115.9375 "/><path style=" stroke:none;fill-rule:evenodd;fill:#ffffff;fill-opacity:1;" d="M 129.15625 80.414062 L 120.320312 90.101562 C 113.898438 108.054688 115.199219 122.785156 124.230469 134.292969 L 133.757812 128.402344 C 129.894531 120.808594 130.847656 113.609375 133.238281 102.171875 C 128.980469 98.617188 127.621094 91.367188 129.15625 80.414062 "/><path style=" stroke:none;fill-rule:evenodd;fill:#ffffff;fill-opacity:1;" d="M 123.199219 64.449219 C 72.378906 64.148438 19.132812 96.007812 30.457031 165.671875 C 29.152344 199.445312 30.808594 221.304688 35.429688 231.246094 C 32 251.53125 34.847656 264.390625 48.972656 268.398438 C 59.328125 241.074219 76.699219 227.925781 101.089844 228.949219 C 104.519531 221.96875 103.144531 216.421875 96.953125 212.3125 C 91.804688 208.300781 80.660156 209.75 63.519531 216.660156 C 71.972656 207.6875 82.171875 203.414062 94.113281 203.832031 C 90.90625 199.609375 79.886719 200.738281 61.050781 207.214844 C 83.355469 193.757812 94.125 181.484375 93.359375 170.394531 C 86.683594 178.527344 76.988281 183.375 64.269531 184.941406 C 79.492188 174.058594 86.664062 165.308594 85.789062 158.695312 C 95.265625 153.179688 96.714844 138.757812 90.140625 115.4375 C 99.773438 129.652344 104.121094 153.445312 103.183594 186.820312 C 109.980469 170.390625 110.03125 156.613281 109.785156 147.992188 C 94.863281 100.976562 106.300781 79.84375 123.199219 64.449219 "/><path style=" stroke:none;fill-rule:evenodd;fill:#ffffff;fill-opacity:1;" d="M 206.125 217.667969 L 178.984375 215.53125 C 168.832031 215.105469 162.585938 229.015625 154.039062 234.839844 C 143.757812 237.046875 126.328125 236.167969 101.761719 232.191406 C 75.660156 236.523438 59.546875 249.667969 53.425781 271.617188 C 71.074219 278.265625 91.984375 275.542969 138.738281 264.226562 C 169.332031 269.980469 186.261719 261.421875 186.261719 261.421875 L 203.039062 261.074219 C 205.816406 260.773438 207.628906 252.863281 204.390625 252.339844 L 189.535156 250.441406 C 188.121094 250.070312 188.289062 249.191406 189.535156 248.742188 L 204.988281 249.023438 C 208.230469 248.722656 209.835938 241.257812 205.589844 240.511719 L 189.667969 238.804688 C 188.660156 238.410156 188.617188 237.574219 189.796875 237.234375 L 207.441406 238.277344 C 210.902344 237.210938 212.078125 230.1875 206.980469 229.65625 L 188.746094 228.078125 C 187.332031 228.078125 187.011719 226.371094 188.746094 226.253906 L 205.746094 226.644531 C 210.15625 226.265625 210.902344 218.710938 206.125 217.667969 "/><path style=" stroke:none;fill-rule:evenodd;fill:#ffffff;fill-opacity:1;" d="M 193.070312 201.660156 L 193.917969 211.964844 L 182.261719 212.34375 L 181.746094 204.464844 C 169.945312 199.714844 166.015625 190.507812 172.675781 176.027344 L 179.597656 188.046875 C 184.316406 190.25 189.300781 187.042969 188.152344 180.65625 L 185.835938 165.828125 C 199.113281 168.9375 205.257812 184.925781 193.070312 201.660156 "/><path style=" stroke:none;fill-rule:evenodd;fill:#ffffff;fill-opacity:1;" d="M 188.292969 303.953125 L 185.921875 267.941406 L 198.742188 270.699219 L 201.558594 304.992188 C 210.15625 312.355469 214.136719 320.21875 213.5 328.574219 C 204.109375 316.773438 193.039062 312.695312 180.296875 316.347656 C 180.667969 309.507812 183.332031 305.375 188.292969 303.953125 "/><path style=" stroke:none;fill-rule:evenodd;fill:#ffffff;fill-opacity:1;" d="M 296.324219 259.308594 C 287.082031 259.105469 283.683594 264.105469 286.125 274.304688 L 307.425781 286.613281 C 310.9375 289.4375 314.070312 293.984375 314.035156 298.621094 L 314.636719 319.621094 C 320.757812 328.609375 327.457031 332.402344 334.730469 330.992188 L 333.21875 295.601562 C 332.90625 287.863281 330.519531 278.617188 322.980469 274.277344 L 296.324219 259.308594 "/><path style=" stroke:none;fill-rule:nonzero;fill:#ffffff;fill-opacity:1;" d="M 267.023438 210.433594 C 267.023438 201.53125 290.992188 194.316406 320.558594 194.316406 C 350.128906 194.316406 374.09375 201.53125 374.09375 210.433594 C 374.09375 219.335938 350.128906 226.550781 320.558594 226.550781 C 290.992188 226.550781 267.023438 219.335938 267.023438 210.433594 "/><path style=" stroke:none;fill-rule:nonzero;fill:#ffffff;fill-opacity:1;" d="M 267.023438 239.382812 C 267.023438 238.65625 267.183594 237.933594 267.496094 237.230469 C 270.988281 245.117188 293.414062 251.199219 320.558594 251.199219 C 347.707031 251.199219 370.128906 245.117188 373.621094 237.230469 C 373.9375 237.933594 374.09375 238.65625 374.09375 239.382812 C 374.09375 248.285156 350.128906 255.5 320.558594 255.5 C 290.992188 255.5 267.023438 248.285156 267.023438 239.382812 "/><path style=" stroke:none;fill-rule:nonzero;fill:#ffffff;fill-opacity:1;" d="M 267.023438 230.339844 L 267.023438 215.207031 C 267.023438 224.109375 290.992188 231.324219 320.558594 231.324219 C 350.128906 231.324219 374.09375 224.109375 374.09375 215.207031 L 374.09375 230.339844 C 374.09375 239.242188 350.128906 246.457031 320.558594 246.457031 C 290.992188 246.457031 267.023438 239.242188 267.023438 230.339844 "/><path style=" stroke:none;fill-rule:evenodd;fill:#2666b9;fill-opacity:1;" d="M 269.855469 219.191406 L 272.222656 219.191406 L 272.222656 237.902344 L 269.855469 237.902344 Z M 269.855469 219.191406 "/><path style=" stroke:none;fill-rule:evenodd;fill:#2666b9;fill-opacity:1;" d="M 274.582031 221.511719 L 276.945312 221.511719 L 276.945312 240.222656 L 274.582031 240.222656 Z M 274.582031 221.511719 "/><path style=" stroke:none;fill-rule:evenodd;fill:#2666b9;fill-opacity:1;" d="M 279.308594 224.144531 L 281.671875 224.144531 L 281.671875 242.855469 L 279.308594 242.855469 Z M 279.308594 224.144531 "/><path style=" stroke:none;fill-rule:evenodd;fill:#2666b9;fill-opacity:1;" d="M 284.03125 225.742188 L 286.394531 225.742188 L 286.394531 244.453125 L 284.03125 244.453125 Z M 284.03125 225.742188 "/><path style=" stroke:none;fill-rule:evenodd;fill:#2666b9;fill-opacity:1;" d="M 288.753906 226.464844 L 291.117188 226.464844 L 291.117188 245.175781 L 288.753906 245.175781 Z M 288.753906 226.464844 "/><path style=" stroke:none;fill-rule:evenodd;fill:#2666b9;fill-opacity:1;" d="M 293.476562 227.792969 L 295.84375 227.792969 L 295.84375 246.503906 L 293.476562 246.503906 Z M 293.476562 227.792969 "/><path style=" stroke:none;fill-rule:evenodd;fill:#2666b9;fill-opacity:1;" d="M 298.199219 228.519531 L 300.566406 228.519531 L 300.566406 247.230469 L 298.199219 247.230469 Z M 298.199219 228.519531 "/><path style=" stroke:none;fill-rule:evenodd;fill:#2666b9;fill-opacity:1;" d="M 302.925781 228.519531 L 305.289062 228.519531 L 305.289062 247.230469 L 302.925781 247.230469 Z M 302.925781 228.519531 "/><path style=" stroke:none;fill-rule:evenodd;fill:#2666b9;fill-opacity:1;" d="M 307.648438 229.535156 L 310.011719 229.535156 L 310.011719 248.246094 L 307.648438 248.246094 Z M 307.648438 229.535156 "/><path style=" stroke:none;fill-rule:evenodd;fill:#2666b9;fill-opacity:1;" d="M 312.371094 229.535156 L 314.738281 229.535156 L 314.738281 248.246094 L 312.371094 248.246094 Z M 312.371094 229.535156 "/><path style=" stroke:none;fill-rule:evenodd;fill:#2666b9;fill-opacity:1;" d="M 317.09375 229.535156 L 319.460938 229.535156 L 319.460938 248.246094 L 317.09375 248.246094 Z M 317.09375 229.535156 "/><path style=" stroke:none;fill-rule:evenodd;fill:#2666b9;fill-opacity:1;" d="M 321.820312 228.808594 L 324.183594 228.808594 L 324.183594 247.519531 L 321.820312 247.519531 Z M 321.820312 228.808594 "/><path style=" stroke:none;fill-rule:evenodd;fill:#2666b9;fill-opacity:1;" d="M 326.539062 228.808594 L 328.90625 228.808594 L 328.90625 247.519531 L 326.539062 247.519531 Z M 326.539062 228.808594 "/><path style=" stroke:none;fill-rule:evenodd;fill:#2666b9;fill-opacity:1;" d="M 331.269531 228.808594 L 333.632812 228.808594 L 333.632812 247.519531 L 331.269531 247.519531 Z M 331.269531 228.808594 "/><path style=" stroke:none;fill-rule:evenodd;fill:#2666b9;fill-opacity:1;" d="M 335.992188 228.808594 L 338.355469 228.808594 L 338.355469 247.519531 L 335.992188 247.519531 Z M 335.992188 228.808594 "/><path style=" stroke:none;fill-rule:evenodd;fill:#2666b9;fill-opacity:1;" d="M 340.714844 227.648438 L 343.078125 227.648438 L 343.078125 246.359375 L 340.714844 246.359375 Z M 340.714844 227.648438 "/><path style=" stroke:none;fill-rule:evenodd;fill:#2666b9;fill-opacity:1;" d="M 345.4375 227.648438 L 347.804688 227.648438 L 347.804688 246.359375 L 345.4375 246.359375 Z M 345.4375 227.648438 "/><path style=" stroke:none;fill-rule:evenodd;fill:#2666b9;fill-opacity:1;" d="M 350.160156 225.886719 L 352.527344 225.886719 L 352.527344 244.597656 L 350.160156 244.597656 Z M 350.160156 225.886719 "/><path style=" stroke:none;fill-rule:evenodd;fill:#2666b9;fill-opacity:1;" d="M 354.886719 225.886719 L 357.25 225.886719 L 357.25 244.597656 L 354.886719 244.597656 Z M 354.886719 225.886719 "/><path style=" stroke:none;fill-rule:evenodd;fill:#2666b9;fill-opacity:1;" d="M 359.609375 223.855469 L 361.972656 223.855469 L 361.972656 242.566406 L 359.609375 242.566406 Z M 359.609375 223.855469 "/><path style=" stroke:none;fill-rule:evenodd;fill:#2666b9;fill-opacity:1;" d="M 364.332031 222.113281 L 366.695312 222.113281 L 366.695312 240.824219 L 364.332031 240.824219 Z M 364.332031 222.113281 "/><path style=" stroke:none;fill-rule:evenodd;fill:#2666b9;fill-opacity:1;" d="M 369.054688 219.191406 L 371.421875 219.191406 L 371.421875 237.902344 L 369.054688 237.902344 Z M 369.054688 219.191406 "/><path style=" stroke:none;fill-rule:nonzero;fill:#ffffff;fill-opacity:1;" d="M 267.023438 210.433594 C 267.023438 201.53125 290.992188 194.316406 320.558594 194.316406 C 350.128906 194.316406 374.09375 201.53125 374.09375 210.433594 C 374.09375 219.335938 350.128906 226.550781 320.558594 226.550781 C 290.992188 226.550781 267.023438 219.335938 267.023438 210.433594 "/><path style=" stroke:none;fill-rule:nonzero;fill:#2666b9;fill-opacity:1;" d="M 275.429688 208.253906 C 275.429688 207.582031 275.660156 206.925781 276.09375 206.285156 C 279.761719 211.648438 298.136719 215.726562 320.257812 215.726562 C 342.378906 215.726562 360.757812 211.648438 364.425781 206.285156 C 364.859375 206.925781 365.089844 207.582031 365.089844 208.253906 C 365.089844 214.554688 345.019531 219.664062 320.257812 219.664062 C 295.5 219.664062 275.429688 214.554688 275.429688 208.253906 "/><path style=" stroke:none;fill-rule:nonzero;fill:#2666b9;fill-opacity:1;" d="M 301.492188 198.882812 C 301.492188 195.605469 309.863281 192.953125 320.191406 192.953125 C 330.523438 192.953125 338.894531 195.605469 338.894531 198.882812 C 338.894531 202.15625 330.523438 204.808594 320.191406 204.808594 C 309.863281 204.808594 301.492188 202.15625 301.492188 198.882812 "/><path style=" stroke:none;fill-rule:evenodd;fill:#2666b9;fill-opacity:1;" d="M 309.855469 265.164062 C 302.996094 266.796875 298.035156 272.394531 294.964844 281.953125 C 295.988281 270.484375 299.867188 264.480469 306.601562 263.945312 L 309.855469 265.164062 "/><path style=" stroke:none;fill-rule:evenodd;fill:#2666b9;fill-opacity:1;" d="M 307.820312 267.605469 L 302.722656 270.535156 C 314.144531 274.550781 321.351562 278.71875 324.335938 283.039062 C 324.144531 278.4375 318.640625 273.292969 307.820312 267.605469 "/><path style=" stroke:none;fill-rule:evenodd;fill:#2666b9;fill-opacity:1;" d="M 308.832031 304.402344 L 309.25 305.609375 C 320.40625 301.722656 330.046875 295.8125 337.910156 288.046875 L 337.015625 287.140625 C 329.289062 294.773438 319.804688 300.582031 308.832031 304.402344 "/><path style=" stroke:none;fill-rule:evenodd;fill:#2666b9;fill-opacity:1;" d="M 308.824219 307.582031 L 309.257812 308.78125 C 320.804688 304.640625 330.449219 298.730469 337.917969 291.21875 L 337.011719 290.320312 C 329.675781 297.695312 320.195312 303.503906 308.824219 307.582031 "/><path style=" stroke:none;fill-rule:evenodd;fill:#2666b9;fill-opacity:1;" d="M 308.820312 310.761719 L 309.261719 311.957031 C 321.203125 307.558594 330.847656 301.648438 337.921875 294.394531 L 337.007812 293.503906 C 330.066406 300.621094 320.582031 306.429688 308.820312 310.761719 "/><path style=" stroke:none;fill-rule:evenodd;fill:#2666b9;fill-opacity:1;" d="M 308.816406 313.941406 L 309.265625 315.136719 C 321.601562 310.476562 331.242188 304.566406 337.925781 297.566406 L 337.003906 296.6875 C 330.457031 303.546875 320.972656 309.351562 308.816406 313.941406 "/><path style=" stroke:none;fill-rule:evenodd;fill:#2666b9;fill-opacity:1;" d="M 308.808594 317.121094 L 309.269531 318.3125 C 322 313.394531 331.644531 307.484375 337.929688 300.738281 L 337 299.867188 C 330.84375 306.472656 321.363281 312.277344 308.808594 317.121094 "/><path style=" stroke:none;fill-rule:evenodd;fill:#2666b9;fill-opacity:1;" d="M 308.808594 320.300781 L 309.273438 321.484375 C 322.402344 316.3125 332.042969 310.402344 337.9375 303.910156 L 336.992188 303.050781 C 331.234375 309.398438 321.75 315.203125 308.808594 320.300781 "/><path style=" stroke:none;fill-rule:evenodd;fill:#2666b9;fill-opacity:1;" d="M 308.804688 323.480469 L 309.277344 324.664062 C 322.800781 319.230469 332.445312 313.316406 337.941406 307.078125 L 336.984375 306.238281 C 331.617188 312.324219 322.136719 318.125 308.804688 323.480469 "/><path style=" stroke:none;fill-rule:evenodd;fill:#2666b9;fill-opacity:1;" d="M 308.800781 326.660156 L 309.28125 327.839844 C 323.199219 322.148438 332.84375 316.234375 337.949219 310.25 L 336.980469 309.421875 C 332.007812 315.25 322.527344 321.050781 308.800781 326.660156 "/><path style=" stroke:none;fill-rule:evenodd;fill:#2666b9;fill-opacity:1;" d="M 308.796875 329.835938 L 309.285156 331.015625 C 323.597656 325.066406 333.246094 319.148438 337.957031 313.417969 L 336.972656 312.609375 C 332.394531 318.175781 322.914062 323.972656 308.796875 329.835938 "/><path style=" stroke:none;fill-rule:evenodd;fill:#2666b9;fill-opacity:1;" d="M 308.792969 333.015625 L 309.285156 334.191406 C 323.996094 327.988281 333.644531 322.0625 337.964844 316.585938 L 336.964844 315.796875 C 332.777344 321.105469 323.304688 326.898438 308.792969 333.015625 "/><path style=" stroke:none;fill-rule:evenodd;fill:#2666b9;fill-opacity:1;" d="M 308.789062 336.195312 L 309.292969 337.367188 C 324.398438 330.90625 334.046875 324.976562 337.972656 319.753906 L 336.953125 318.988281 C 333.164062 324.03125 323.6875 329.820312 308.789062 336.195312 "/><path style=" stroke:none;fill-rule:evenodd;fill:#2666b9;fill-opacity:1;" d="M 308.789062 339.375 L 309.292969 340.542969 C 325.019531 333.726562 334.402344 327.960938 337.984375 322.914062 L 336.945312 322.179688 C 333.550781 326.960938 324.078125 332.746094 308.789062 339.375 "/><path style=" stroke:none;fill-rule:evenodd;fill:#2666b9;fill-opacity:1;" d="M 305.695312 289.234375 C 316.503906 294 327.585938 296.253906 338.632812 295.9375 L 338.597656 294.664062 C 327.738281 294.976562 316.84375 292.757812 306.210938 288.066406 L 305.695312 289.234375 "/><path style=" stroke:none;fill-rule:evenodd;fill:#2666b9;fill-opacity:1;" d="M 305.695312 291.917969 C 316.503906 296.6875 327.585938 298.941406 338.632812 298.625 L 338.597656 297.351562 C 327.742188 297.664062 316.84375 295.445312 306.210938 290.753906 L 305.695312 291.917969 "/><path style=" stroke:none;fill-rule:evenodd;fill:#2666b9;fill-opacity:1;" d="M 305.695312 294.605469 C 316.503906 299.371094 327.585938 301.625 338.632812 301.3125 L 338.597656 300.035156 C 327.738281 300.347656 316.84375 298.128906 306.210938 293.4375 L 305.695312 294.605469 "/><path style=" stroke:none;fill-rule:evenodd;fill:#2666b9;fill-opacity:1;" d="M 305.695312 297.292969 C 316.503906 302.058594 327.585938 304.3125 338.632812 303.996094 L 338.597656 302.722656 C 327.738281 303.035156 316.84375 300.816406 306.210938 296.125 L 305.695312 297.292969 "/><path style=" stroke:none;fill-rule:evenodd;fill:#2666b9;fill-opacity:1;" d="M 305.695312 299.980469 C 316.503906 304.742188 327.585938 307 338.632812 306.683594 L 338.597656 305.40625 C 327.742188 305.722656 316.84375 303.5 306.210938 298.8125 L 305.695312 299.980469 "/><path style=" stroke:none;fill-rule:evenodd;fill:#2666b9;fill-opacity:1;" d="M 305.695312 302.664062 C 316.503906 307.429688 327.585938 309.683594 338.632812 309.371094 L 338.597656 308.09375 C 327.738281 308.40625 316.84375 306.1875 306.210938 301.496094 L 305.695312 302.664062 "/><path style=" stroke:none;fill-rule:evenodd;fill:#2666b9;fill-opacity:1;" d="M 305.695312 305.351562 C 316.503906 310.113281 327.585938 312.371094 338.632812 312.054688 L 338.597656 310.777344 C 327.738281 311.09375 316.84375 308.871094 306.210938 304.183594 L 305.695312 305.351562 "/><path style=" stroke:none;fill-rule:evenodd;fill:#2666b9;fill-opacity:1;" d="M 305.695312 308.035156 C 316.503906 312.800781 327.585938 315.058594 338.632812 314.742188 L 338.597656 313.464844 C 327.738281 313.777344 316.84375 311.558594 306.210938 306.867188 L 305.695312 308.035156 "/><path style=" stroke:none;fill-rule:evenodd;fill:#2666b9;fill-opacity:1;" d="M 305.695312 310.722656 C 316.503906 315.484375 327.585938 317.742188 338.632812 317.425781 L 338.597656 316.152344 C 327.738281 316.464844 316.84375 314.246094 306.210938 309.554688 L 305.695312 310.722656 "/><path style=" stroke:none;fill-rule:evenodd;fill:#2666b9;fill-opacity:1;" d="M 305.695312 313.40625 C 316.503906 318.171875 327.585938 320.429688 338.632812 320.113281 L 338.597656 318.835938 C 327.738281 319.148438 316.84375 316.929688 306.210938 312.242188 L 305.695312 313.40625 "/><path style=" stroke:none;fill-rule:evenodd;fill:#2666b9;fill-opacity:1;" d="M 305.695312 316.09375 C 316.503906 320.859375 327.585938 323.113281 338.632812 322.796875 L 338.597656 321.523438 C 327.738281 321.835938 316.84375 319.617188 306.210938 314.925781 L 305.695312 316.09375 "/><path style=" stroke:none;fill-rule:evenodd;fill:#2666b9;fill-opacity:1;" d="M 305.695312 318.78125 C 316.503906 323.542969 327.585938 325.800781 338.632812 325.484375 L 338.597656 324.207031 C 327.738281 324.519531 316.84375 322.300781 306.210938 317.613281 L 305.695312 318.78125 "/><path style=" stroke:none;fill-rule:evenodd;fill:#2666b9;fill-opacity:1;" d="M 305.695312 321.464844 C 316.503906 326.230469 327.585938 328.488281 338.632812 328.167969 L 338.597656 326.894531 C 327.738281 327.207031 316.84375 324.988281 306.210938 320.296875 L 305.695312 321.464844 "/><path style=" stroke:none;fill-rule:evenodd;fill:#2666b9;fill-opacity:1;" d="M 305.695312 324.152344 C 316.503906 328.914062 327.585938 331.171875 338.632812 330.855469 L 338.597656 329.582031 C 327.738281 329.890625 316.84375 327.671875 306.210938 322.984375 L 305.695312 324.152344 "/><path style=" stroke:none;fill-rule:evenodd;fill:#2666b9;fill-opacity:1;" d="M 308.832031 300.855469 L 309.25 302.058594 C 320.40625 298.171875 330.046875 292.265625 337.910156 284.5 L 337.015625 283.59375 C 329.289062 291.222656 319.804688 297.03125 308.832031 300.855469 "/><path style=" stroke:none;fill-rule:evenodd;fill:#2666b9;fill-opacity:1;" d="M 307.667969 298.375 L 308.085938 299.578125 C 319.242188 295.691406 328.886719 289.78125 336.75 282.015625 L 335.851562 281.109375 C 328.125 288.742188 318.644531 294.550781 307.667969 298.375 "/><path style=" stroke:none;fill-rule:evenodd;fill:#ffffff;fill-opacity:1;" d="M 254.8125 206.46875 C 262.109375 240.511719 262.375 250.828125 269.792969 263.722656 L 291.851562 288.816406 L 305.210938 310.433594 L 306.484375 325.082031 C 306.265625 329.914062 300.015625 330.042969 299.355469 325.570312 L 298.117188 314.210938 L 288.601562 302.730469 C 287.289062 301.261719 286.816406 301.660156 287.210938 303.207031 L 291 318.738281 L 288.0625 335.441406 C 286.929688 340.867188 279.980469 339.574219 280.804688 333.542969 L 282.246094 320.539062 L 277.59375 305.625 C 276.394531 303.53125 275.101562 303.902344 275.398438 306.039062 L 280.203125 320.539062 L 276.347656 338.59375 C 274.9375 343.691406 266.550781 343.824219 268.210938 337.65625 L 270.613281 321.765625 L 265.046875 307.214844 C 264.125 305.320312 263 306.382812 263.042969 307.882812 L 264.792969 323.804688 L 260.734375 342.421875 C 259.132812 348.429688 250.949219 347.242188 252.917969 340.417969 L 254.945312 323.546875 L 250.839844 307.863281 C 248.8125 304.085938 245.828125 302.898438 244.65625 306.675781 C 242.351562 323.960938 232.644531 328.566406 230.5 323.039062 C 233.488281 316.421875 233.558594 309.066406 234.785156 303.085938 C 239.8125 293.640625 240.753906 281.070312 241.445312 268.300781 C 236.863281 250.390625 225.503906 246.296875 217.140625 217.515625 C 224.160156 201.800781 237.65625 200.183594 254.8125 206.46875 "/><path style=" stroke:none;fill-rule:evenodd;fill:#ffffff;fill-opacity:1;" d="M 125.078125 71.511719 C 110.957031 91.132812 106.289062 108.0625 118.328125 132.148438 L 110.683594 140.128906 C 103.503906 109.769531 108.304688 86.894531 125.078125 71.511719 "/><path style=" stroke:none;fill-rule:evenodd;fill:#2666b9;fill-opacity:1;" d="M 139.601562 91.492188 C 139.824219 88.003906 140.9375 85.84375 142.949219 85.023438 C 144.15625 80.734375 143.984375 77.421875 142.433594 75.085938 C 141.207031 74.351562 139.421875 75.75 137.078125 79.28125 C 139.378906 77.953125 140.648438 77.824219 140.890625 78.894531 L 140.890625 82.835938 L 136.691406 81.808594 L 139.859375 85.878906 L 136.5625 86.265625 L 139.601562 91.492188 "/><path style=" stroke:none;fill-rule:evenodd;fill:#2666b9;fill-opacity:1;" d="M 150.058594 100.320312 C 150.371094 106.082031 151.601562 111.355469 153.742188 116.132812 C 150.253906 118.667969 147.367188 122.609375 145.089844 127.953125 C 144.976562 120.480469 146.933594 116.371094 150.957031 115.617188 C 148.109375 111.109375 147.808594 106.007812 150.058594 100.320312 "/><path style=" stroke:none;fill-rule:evenodd;fill:#2666b9;fill-opacity:1;" d="M 133.992188 105.035156 C 130.5625 106.632812 126.40625 111.214844 121.523438 118.785156 C 126.507812 114.078125 130.792969 111.066406 134.375 109.746094 L 133.992188 105.035156 "/><path style=" stroke:none;fill-rule:evenodd;fill:#2666b9;fill-opacity:1;" d="M 182.710938 133.4375 C 173.027344 131.296875 172.507812 126.589844 179.363281 125.429688 C 175.539062 128.269531 176.652344 130.941406 182.710938 133.4375 "/><path style=" stroke:none;fill-rule:evenodd;fill:#2666b9;fill-opacity:1;" d="M 175.9375 125.042969 L 163.085938 126.667969 L 157.601562 132.539062 L 165.351562 127.953125 L 175.9375 125.042969 "/><path style=" stroke:none;fill-rule:evenodd;fill:#2666b9;fill-opacity:1;" d="M 202.957031 92.113281 C 211.707031 104.945312 208.480469 109.925781 193.285156 107.058594 C 204.1875 104.886719 205.421875 99.136719 196.984375 89.8125 L 202.957031 92.113281 "/><path style=" stroke:none;fill-rule:evenodd;fill:#2666b9;fill-opacity:1;" d="M 59.390625 254.34375 C 68.109375 259.398438 87.652344 260.386719 118.003906 257.3125 C 84.507812 264.589844 64.175781 265.167969 57.015625 259.050781 L 59.390625 254.34375 "/><path style=" stroke:none;fill-rule:evenodd;fill:#2666b9;fill-opacity:1;" d="M 58.421875 223.476562 C 39.503906 219.84375 28.929688 228.90625 26.699219 250.660156 C 32.527344 233.648438 43.101562 224.585938 58.421875 223.476562 "/><path style=" stroke:none;fill-rule:evenodd;fill:#2666b9;fill-opacity:1;" d="M 77.125 224.601562 C 52.269531 240.554688 41.949219 255.214844 46.15625 268.585938 C 48.972656 252.734375 59.292969 238.074219 77.125 224.601562 "/><path style=" stroke:none;fill-rule:evenodd;fill:#ffffff;fill-opacity:1;" d="M 171.683594 321.175781 C 197.683594 321.066406 213.84375 330.394531 220.167969 349.171875 C 209.941406 337.1875 193.78125 327.855469 171.683594 321.175781 "/><path style=" stroke:none;fill-rule:evenodd;fill:#ffffff;fill-opacity:1;" d="M 246.847656 333.808594 L 234.164062 337.5 L 231.949219 354.40625 L 246.039062 347.496094 L 246.847656 333.808594 "/><path style=" stroke:none;fill-rule:evenodd;fill:#ffffff;fill-opacity:1;" d="M 210.351562 309.121094 L 219.945312 314.894531 L 223.160156 338.507812 L 225.042969 313.214844 L 215.246094 307.710938 L 210.351562 309.121094 "/><path style=" stroke:none;fill-rule:evenodd;fill:#ffffff;fill-opacity:1;" d="M 170.765625 289.53125 L 135.476562 299.527344 L 142.183594 305.300781 L 181.765625 293.621094 L 170.765625 289.53125 "/><path style=" stroke:none;fill-rule:evenodd;fill:#ffffff;fill-opacity:1;" d="M 358.589844 313.441406 L 358.589844 284.222656 L 347.707031 284.855469 L 347.707031 325.644531 L 358.589844 313.441406 "/><path style=" stroke:none;fill-rule:evenodd;fill:#ffffff;fill-opacity:1;" d="M 363.691406 258.386719 C 355.386719 271.78125 341.332031 273.917969 321.523438 264.800781 C 339.007812 267.640625 353.0625 265.5 363.691406 258.386719 "/><path style=" stroke:none;fill-rule:evenodd;fill:#ffffff;fill-opacity:1;" d="M 251.144531 195.421875 C 240.933594 181.679688 228.179688 182.242188 212.878906 197.105469 C 229.429688 189.253906 242.183594 188.691406 251.144531 195.421875 "/><path style=" stroke:none;fill-rule:evenodd;fill:#ffffff;fill-opacity:1;" d="M 249.414062 184.660156 C 245.988281 169.121094 235.695312 165.34375 218.539062 173.339844 C 235.558594 172.097656 245.851562 175.871094 249.414062 184.660156 "/><path style=" stroke:none;fill-rule:evenodd;fill:#2666b9;fill-opacity:1;" d="M 171.179688 74.699219 C 176.066406 60.152344 170.464844 47.539062 154.382812 36.863281 C 175.882812 40.816406 182.539062 54.269531 174.347656 77.222656 L 171.179688 74.699219 "/><g clip-rule="nonzero" clip-path="url(#6a37da66b5)"><path style=" stroke:none;fill-rule:nonzero;fill:#ffffff;fill-opacity:1;" d="M 190.839844 381.011719 C 164.375 348.414062 95.277344 303.1875 -3.167969 289.976562 L -3.167969 271.679688 C 105.355469 288.660156 179.246094 325.105469 218.503906 381.011719 L 190.839844 381.011719 "/></g><g clip-rule="nonzero" clip-path="url(#0f2724b22a)"><path style=" stroke:none;fill-rule:nonzero;fill:#ffffff;fill-opacity:1;" d="M 377.847656 326.492188 L 241.328125 375.636719 L 230.109375 375.125 L 377.847656 318.796875 L 377.847656 326.492188 "/></g><path style=" stroke:none;fill-rule:evenodd;fill:#2666b9;fill-opacity:1;" d="M 190.609375 189.039062 C 188.9375 197.847656 185.070312 199.042969 179.019531 192.621094 C 183.878906 195.425781 187.742188 194.230469 190.609375 189.039062 "/><path style=" stroke:none;fill-rule:evenodd;fill:#2666b9;fill-opacity:1;" d="M 193.6875 267.558594 L 196.890625 301.296875 C 195.835938 303.140625 194.4375 303.675781 192.691406 302.898438 C 193.769531 302.46875 194.367188 301.28125 194.488281 299.339844 L 191.253906 267.71875 L 193.6875 267.558594 "/><path style=" stroke:none;fill-rule:evenodd;fill:#2666b9;fill-opacity:1;" d="M 242.433594 201.351562 C 247.925781 210.914062 251.9375 227.78125 254.464844 251.957031 C 250.261719 230.109375 244.746094 212.542969 237.914062 199.265625 L 242.433594 201.351562 "/><path style=" stroke:none;fill-rule:evenodd;fill:#2666b9;fill-opacity:1;" d="M 72.527344 115.46875 C 57.171875 97.023438 41.800781 101.078125 26.410156 127.640625 C 41.554688 108.101562 56.925781 104.042969 72.527344 115.46875 "/><path style=" stroke:none;fill-rule:evenodd;fill:#ffffff;fill-opacity:1;" d="M 146.683594 151.929688 C 139.078125 153.089844 130.820312 151.015625 121.910156 145.703125 L 129.550781 165.792969 L 146.683594 151.929688 "/><path style=" stroke:none;fill-rule:evenodd;fill:#ffffff;fill-opacity:1;" d="M 215.425781 107.140625 C 223.492188 112.171875 230.949219 123.742188 237.792969 141.847656 C 232.050781 121.042969 224.691406 107.679688 215.710938 101.765625 L 215.425781 107.140625 "/><path style=" stroke:none;fill-rule:evenodd;fill:#2666b9;fill-opacity:1;" d="M 305.695312 289.234375 C 314.449219 293.09375 323.359375 292.5625 331.976562 292.050781 L 338.554688 291.726562 L 338.515625 290.453125 L 331.902344 290.777344 C 323.042969 291.304688 314.679688 291.800781 306.210938 288.066406 L 305.695312 289.234375 "/><path style=" stroke:none;fill-rule:evenodd;fill:#2666b9;fill-opacity:1;" d="M 331.464844 287.59375 C 323.492188 289.519531 314.457031 291.703125 306.210938 288.066406 L 305.695312 289.234375 C 314.332031 293.042969 323.59375 290.808594 331.765625 288.835938 C 333.953125 288.308594 336.019531 287.808594 337.9375 287.464844 L 337.710938 286.210938 C 335.757812 286.558594 333.671875 287.0625 331.464844 287.59375 "/><path style=" stroke:none;fill-rule:evenodd;fill:#2666b9;fill-opacity:1;" d="M 303.769531 297.265625 L 304.039062 298.511719 C 309.335938 297.367188 314.171875 295.0625 319.726562 291.042969 L 318.976562 290.011719 C 313.574219 293.921875 308.886719 296.160156 303.769531 297.265625 "/><path style=" stroke:none;fill-rule:evenodd;fill:#2666b9;fill-opacity:1;" d="M 326.320312 285.101562 C 321.335938 287.96875 312.640625 289.585938 305.332031 286.363281 L 304.816406 287.527344 C 312.535156 290.929688 321.703125 289.230469 326.957031 286.207031 C 330.285156 284.292969 332.285156 281.785156 332.578125 279.152344 L 331.3125 279.011719 C 331.066406 281.230469 329.289062 283.394531 326.320312 285.101562 "/><path style=" stroke:none;fill-rule:evenodd;fill:#2666b9;fill-opacity:1;" d="M 190.332031 212.839844 L 189.769531 201.9375 C 195.902344 186.507812 194.179688 174.992188 184.597656 167.382812 C 197.316406 173.925781 199.605469 185.382812 191.453125 201.75 L 192.292969 212.652344 L 190.332031 212.839844 "/></g><mask id="42851074d6"><g filter="url(#4a41ccfa0f)"><rect x="0" width="375" y="0" height="374.999991" style="fill:#000000;fill-opacity:0.09;stroke:none;"/></g></mask></g><g clip-rule="nonzero" clip-path="url(#24f6a1b1ec)"><path style=" stroke:none;fill-rule:nonzero;fill:#000000;fill-opacity:1;" d="M 190.136719 259.246094 L 213.003906 330.5 C 215.082031 336.96875 221.074219 341.089844 227.523438 341.089844 C 229.066406 341.089844 230.636719 340.855469 232.183594 340.359375 C 240.203125 337.785156 244.621094 329.203125 242.046875 321.183594 L 217.871094 245.859375 C 217.015625 243.199219 215.449219 240.824219 213.332031 238.996094 L 170.957031 202.308594 C 169.207031 209.816406 166.222656 221.261719 161.691406 234.621094 Z M 190.136719 259.246094 "/></g><path style=" stroke:none;fill-rule:nonzero;fill:#000000;fill-opacity:1;" d="M 235.613281 175.996094 C 237.230469 177.015625 239.03125 177.503906 240.8125 177.503906 C 244.050781 177.503906 247.21875 175.890625 249.078125 172.953125 C 250.683594 170.40625 250.964844 167.398438 250.105469 164.742188 L 227.507812 170.882812 Z M 235.613281 175.996094 "/><path style=" stroke:none;fill-rule:nonzero;fill:#000000;fill-opacity:1;" d="M 151.652344 119.566406 C 153.132812 119.566406 154.59375 119.820312 155.996094 120.324219 C 159.214844 121.484375 161.789062 123.828125 163.242188 126.925781 C 164.699219 130.023438 164.863281 133.5 163.699219 136.714844 L 159.507812 148.332031 L 176.640625 143.679688 C 176.558594 142.011719 176.449219 140.3125 176.3125 138.578125 L 182.0625 142.203125 L 207.628906 135.261719 L 161.90625 106.410156 C 161.75 106.3125 161.589844 106.230469 161.429688 106.140625 C 161.300781 106.0625 161.167969 105.996094 161.039062 105.921875 C 161.035156 105.921875 161.035156 105.917969 161.035156 105.917969 C 157.042969 103.59375 152.75 102.511719 148.835938 102.644531 C 138.109375 103.019531 130.605469 116.273438 131.503906 128.871094 C 131.394531 135.535156 131.425781 143.34375 131.113281 151.5625 L 139.601562 128.027344 C 141.429688 122.964844 146.273438 119.566406 151.652344 119.566406 Z M 151.652344 119.566406 "/><path style=" stroke:none;fill-rule:nonzero;fill:#000000;fill-opacity:1;" d="M 150.738281 191.738281 L 144.679688 193.382812 L 149.285156 204.152344 C 151.292969 208.84375 149.109375 214.292969 144.414062 216.300781 L 131.929688 221.636719 C 129.558594 228.847656 126.683594 236.738281 123.242188 244.867188 L 58.921875 240.351562 C 50.871094 239.792969 43.855469 245.859375 43.289062 253.925781 C 42.726562 261.988281 48.804688 268.984375 56.867188 269.550781 L 131.410156 274.785156 C 131.753906 274.808594 132.097656 274.820312 132.441406 274.820312 C 138.082031 274.820312 143.265625 271.566406 145.6875 266.402344 C 160.308594 235.261719 167.21875 205.675781 169.273438 195.832031 Z M 150.738281 191.738281 "/><path style=" stroke:none;fill-rule:nonzero;fill:#000000;fill-opacity:1;" d="M 190.0625 107.398438 C 205.105469 105.476562 215.738281 91.734375 213.816406 76.703125 C 213.429688 73.664062 212.550781 70.808594 211.28125 68.195312 L 159.730469 85.808594 C 162.628906 99.683594 175.757812 109.222656 190.0625 107.398438 Z M 190.0625 107.398438 "/><path style=" stroke:none;fill-rule:nonzero;fill:#000000;fill-opacity:1;" d="M 213.226562 60.28125 C 212.546875 58.296875 210.371094 57.230469 208.386719 57.90625 L 206.773438 58.457031 C 201.066406 46.445312 187.128906 40.359375 174.238281 44.765625 C 161.347656 49.167969 154.054688 62.507812 156.898438 75.5 L 155.285156 76.050781 C 153.300781 76.730469 152.230469 78.90625 152.910156 80.890625 C 153.585938 82.875 155.765625 83.941406 157.75 83.265625 L 210.851562 65.121094 C 212.835938 64.441406 213.90625 62.265625 213.226562 60.28125 Z M 213.226562 60.28125 "/><path style=" stroke:none;fill-rule:nonzero;fill:#000000;fill-opacity:1;" d="M 65.011719 109.203125 L 118.039062 109.203125 L 118.039062 111.152344 L 65.011719 111.152344 Z M 65.011719 109.203125 "/><path style=" stroke:none;fill-rule:nonzero;fill:#000000;fill-opacity:1;" d="M 53.964844 120.886719 L 106.992188 120.886719 L 106.992188 122.832031 L 53.964844 122.832031 Z M 53.964844 120.886719 "/><g clip-rule="nonzero" clip-path="url(#530883d40b)"><path style=" stroke:none;fill-rule:nonzero;fill:#000000;fill-opacity:1;" d="M 20.960938 115.042969 L 97.050781 115.042969 L 97.050781 116.992188 L 20.960938 116.992188 Z M 20.960938 115.042969 "/></g><path style=" stroke:none;fill-rule:nonzero;fill:#000000;fill-opacity:1;" d="M 143.214844 213.496094 C 146.367188 212.148438 147.828125 208.5 146.480469 205.351562 L 141.707031 194.191406 L 115.699219 201.257812 L 121.9375 215.84375 C 123.285156 218.996094 126.933594 220.457031 130.085938 219.109375 Z M 143.214844 213.496094 "/><g clip-rule="nonzero" clip-path="url(#5751f46400)"><path style=" stroke:none;fill-rule:nonzero;fill:#000000;fill-opacity:1;" d="M 285.214844 134.554688 C 282.753906 125.636719 287.984375 116.421875 296.902344 113.953125 L 321.800781 107.082031 C 311.710938 94.75 294.96875 88.8125 278.609375 93.324219 C 262.253906 97.832031 250.933594 111.523438 248.605469 127.285156 L 158.246094 151.835938 L 153.121094 166.035156 L 195.4375 175.378906 C 196.0625 175.519531 196.667969 175.714844 197.257812 175.941406 L 257.519531 159.570312 C 267.605469 171.902344 284.359375 177.855469 300.703125 173.335938 C 317.0625 168.828125 328.390625 155.128906 330.71875 139.371094 L 305.816406 146.242188 C 296.902344 148.707031 287.671875 143.472656 285.214844 134.554688 Z M 285.214844 134.554688 "/></g><path style=" stroke:none;fill-rule:nonzero;fill:#000000;fill-opacity:1;" d="M 144.324219 190.320312 L 133.367188 187.902344 C 129.769531 187.109375 126.6875 184.804688 124.910156 181.578125 C 123.132812 178.355469 122.828125 174.515625 124.078125 171.054688 L 128.054688 160.039062 L 46.785156 182.117188 C 37.871094 184.574219 32.628906 193.800781 35.09375 202.710938 C 37.5625 211.632812 46.78125 216.863281 55.695312 214.398438 Z M 57.089844 201.6875 C 55.296875 204.90625 51.234375 206.0625 48.015625 204.273438 C 44.796875 202.480469 43.636719 198.421875 45.429688 195.203125 C 47.21875 191.980469 51.28125 190.824219 54.503906 192.617188 C 57.722656 194.40625 58.878906 198.46875 57.089844 201.6875 Z M 57.089844 201.6875 "/><path style=" stroke:none;fill-rule:nonzero;fill:#000000;fill-opacity:1;" d="M 149.078125 168.265625 L 160.832031 135.679688 C 162.660156 130.613281 160.03125 125.023438 154.960938 123.195312 C 149.894531 121.367188 144.300781 123.992188 142.46875 129.0625 L 126.949219 172.085938 C 125.996094 174.726562 126.226562 177.648438 127.582031 180.105469 C 128.9375 182.5625 131.285156 184.320312 134.023438 184.925781 L 190.566406 197.410156 C 191.277344 197.566406 191.984375 197.644531 192.683594 197.644531 C 197.160156 197.640625 201.199219 194.539062 202.203125 189.988281 C 203.367188 184.726562 200.042969 179.519531 194.777344 178.355469 Z M 149.078125 168.265625 "/><g style="fill:#000000;fill-opacity:1;"><g transform="translate(276.463221, 190.368668)"><path style="stroke:none" d="M 5.125 -6.703125 C 5.863281 -7.941406 6.707031 -8.921875 7.65625 -9.640625 C 8.613281 -10.359375 9.617188 -10.832031 10.671875 -11.0625 C 11.722656 -11.300781 12.800781 -11.316406 13.90625 -11.109375 C 15.019531 -10.898438 16.101562 -10.476562 17.15625 -9.84375 C 18.21875 -9.21875 19.101562 -8.46875 19.8125 -7.59375 C 20.519531 -6.71875 21.023438 -5.757812 21.328125 -4.71875 C 21.628906 -3.675781 21.6875 -2.5625 21.5 -1.375 C 21.320312 -0.195312 20.863281 1.007812 20.125 2.25 C 19.207031 3.789062 18.140625 4.929688 16.921875 5.671875 C 15.710938 6.421875 14.429688 6.804688 13.078125 6.828125 C 13.253906 7.085938 13.460938 7.378906 13.703125 7.703125 C 13.953125 8.023438 14.21875 8.351562 14.5 8.6875 C 14.78125 9.019531 15.070312 9.359375 15.375 9.703125 C 15.6875 10.046875 15.976562 10.367188 16.25 10.671875 C 16.207031 10.773438 16.164062 10.859375 16.125 10.921875 C 16.09375 10.992188 16.050781 11.066406 16 11.140625 C 15.46875 12.035156 14.847656 12.550781 14.140625 12.6875 C 13.429688 12.820312 12.695312 12.660156 11.9375 12.203125 C 11.207031 11.773438 10.578125 11.125 10.046875 10.25 C 9.515625 9.382812 9.070312 8.332031 8.71875 7.09375 L 8.25 5.5 L 8.0625 5.390625 C 6.988281 4.742188 6.09375 3.976562 5.375 3.09375 C 4.664062 2.207031 4.171875 1.242188 3.890625 0.203125 C 3.617188 -0.835938 3.578125 -1.941406 3.765625 -3.109375 C 3.953125 -4.285156 4.40625 -5.484375 5.125 -6.703125 Z M 9.390625 -4.15625 C 8.535156 -2.71875 8.1875 -1.46875 8.34375 -0.40625 C 8.5 0.644531 9.066406 1.46875 10.046875 2.0625 C 11.046875 2.65625 12.050781 2.769531 13.0625 2.40625 C 14.070312 2.039062 15.003906 1.140625 15.859375 -0.296875 C 16.710938 -1.722656 17.0625 -2.960938 16.90625 -4.015625 C 16.75 -5.066406 16.175781 -5.890625 15.1875 -6.484375 C 14.207031 -7.078125 13.210938 -7.195312 12.203125 -6.84375 C 11.191406 -6.488281 10.253906 -5.59375 9.390625 -4.15625 Z M 9.390625 -4.15625 "/></g></g><g style="fill:#000000;fill-opacity:1;"><g transform="translate(295.699856, 200.965247)"><path style="stroke:none" d="M 3.765625 -12.765625 C 3.941406 -12.773438 4.226562 -12.769531 4.625 -12.75 C 5.03125 -12.738281 5.441406 -12.695312 5.859375 -12.625 C 6.265625 -12.550781 6.617188 -12.457031 6.921875 -12.34375 C 7.234375 -12.226562 7.484375 -12.066406 7.671875 -11.859375 C 7.859375 -11.660156 7.984375 -11.410156 8.046875 -11.109375 C 8.117188 -10.816406 8.113281 -10.445312 8.03125 -10 L 6.984375 -4.15625 C 6.847656 -3.40625 6.929688 -2.84375 7.234375 -2.46875 C 7.546875 -2.09375 8.046875 -1.84375 8.734375 -1.71875 C 9.140625 -1.644531 9.476562 -1.613281 9.75 -1.625 C 10.03125 -1.644531 10.253906 -1.679688 10.421875 -1.734375 L 12.125 -11.25 C 12.3125 -11.257812 12.601562 -11.253906 13 -11.234375 C 13.394531 -11.222656 13.804688 -11.179688 14.234375 -11.109375 C 14.628906 -11.035156 14.976562 -10.941406 15.28125 -10.828125 C 15.59375 -10.710938 15.84375 -10.554688 16.03125 -10.359375 C 16.21875 -10.160156 16.34375 -9.910156 16.40625 -9.609375 C 16.476562 -9.316406 16.472656 -8.945312 16.390625 -8.5 L 14.90625 -0.234375 C 14.738281 0.679688 14.234375 1.296875 13.390625 1.609375 C 12.679688 1.890625 11.867188 2.054688 10.953125 2.109375 C 10.046875 2.160156 9.078125 2.09375 8.046875 1.90625 C 7.066406 1.726562 6.179688 1.453125 5.390625 1.078125 C 4.609375 0.710938 3.957031 0.253906 3.4375 -0.296875 C 2.925781 -0.847656 2.570312 -1.515625 2.375 -2.296875 C 2.1875 -3.078125 2.1875 -3.976562 2.375 -5 Z M 3.765625 -12.765625 "/></g></g><g style="fill:#000000;fill-opacity:1;"><g transform="translate(313.203016, 203.423675)"><path style="stroke:none" d="M 0.265625 -17.1875 C 0.210938 -17.882812 0.40625 -18.488281 0.84375 -19 C 1.289062 -19.507812 1.898438 -19.789062 2.671875 -19.84375 C 3.429688 -19.882812 4.054688 -19.679688 4.546875 -19.234375 C 5.046875 -18.785156 5.320312 -18.210938 5.375 -17.515625 C 5.414062 -16.816406 5.210938 -16.210938 4.765625 -15.703125 C 4.328125 -15.191406 3.726562 -14.914062 2.96875 -14.875 C 2.195312 -14.820312 1.5625 -15.019531 1.0625 -15.46875 C 0.570312 -15.914062 0.304688 -16.488281 0.265625 -17.1875 Z M 6.21875 -0.421875 C 6.019531 -0.367188 5.722656 -0.296875 5.328125 -0.203125 C 4.941406 -0.117188 4.546875 -0.0664062 4.140625 -0.046875 C 3.742188 -0.015625 3.378906 -0.015625 3.046875 -0.046875 C 2.722656 -0.078125 2.445312 -0.171875 2.21875 -0.328125 C 1.988281 -0.484375 1.804688 -0.695312 1.671875 -0.96875 C 1.535156 -1.25 1.453125 -1.617188 1.421875 -2.078125 L 0.71875 -13.28125 C 0.914062 -13.320312 1.207031 -13.390625 1.59375 -13.484375 C 1.988281 -13.578125 2.390625 -13.640625 2.796875 -13.671875 C 3.191406 -13.691406 3.550781 -13.679688 3.875 -13.640625 C 4.207031 -13.609375 4.488281 -13.515625 4.71875 -13.359375 C 4.945312 -13.203125 5.128906 -12.988281 5.265625 -12.71875 C 5.398438 -12.457031 5.484375 -12.097656 5.515625 -11.640625 Z M 6.21875 -0.421875 "/></g></g><g style="fill:#000000;fill-opacity:1;"><g transform="translate(322.484405, 202.988271)"><path style="stroke:none" d="M 5.875 -12.203125 C 5.4375 -12.078125 5.035156 -11.882812 4.671875 -11.625 C 4.316406 -11.375 4.03125 -11.066406 3.8125 -10.703125 C 3.601562 -10.347656 3.460938 -9.941406 3.390625 -9.484375 C 3.328125 -9.023438 3.375 -8.523438 3.53125 -7.984375 C 3.84375 -6.890625 4.390625 -6.15625 5.171875 -5.78125 C 5.960938 -5.414062 6.8125 -5.359375 7.71875 -5.609375 C 8.25 -5.765625 8.691406 -5.957031 9.046875 -6.1875 C 9.410156 -6.425781 9.722656 -6.65625 9.984375 -6.875 C 10.398438 -6.726562 10.734375 -6.535156 10.984375 -6.296875 C 11.242188 -6.066406 11.4375 -5.742188 11.5625 -5.328125 C 11.757812 -4.609375 11.570312 -3.953125 11 -3.359375 C 10.425781 -2.765625 9.53125 -2.296875 8.3125 -1.953125 C 7.1875 -1.628906 6.125 -1.503906 5.125 -1.578125 C 4.132812 -1.648438 3.234375 -1.882812 2.421875 -2.28125 C 1.609375 -2.6875 0.90625 -3.253906 0.3125 -3.984375 C -0.269531 -4.722656 -0.703125 -5.597656 -0.984375 -6.609375 C -1.316406 -7.765625 -1.414062 -8.835938 -1.28125 -9.828125 C -1.15625 -10.816406 -0.847656 -11.6875 -0.359375 -12.4375 C 0.128906 -13.1875 0.757812 -13.828125 1.53125 -14.359375 C 2.3125 -14.890625 3.179688 -15.289062 4.140625 -15.5625 C 5.410156 -15.925781 6.457031 -15.972656 7.28125 -15.703125 C 8.113281 -15.441406 8.628906 -14.945312 8.828125 -14.21875 C 8.929688 -13.882812 8.941406 -13.550781 8.859375 -13.21875 C 8.785156 -12.882812 8.671875 -12.582031 8.515625 -12.3125 C 8.171875 -12.363281 7.765625 -12.390625 7.296875 -12.390625 C 6.835938 -12.398438 6.363281 -12.335938 5.875 -12.203125 Z M 5.875 -12.203125 "/></g></g><g style="fill:#000000;fill-opacity:1;"><g transform="translate(337.387066, 198.56682)"><path style="stroke:none" d="M 10.9375 -9.890625 C 11.332031 -9.109375 11.476562 -8.410156 11.375 -7.796875 C 11.269531 -7.191406 10.882812 -6.675781 10.21875 -6.25 C 9.726562 -5.9375 9.210938 -5.773438 8.671875 -5.765625 C 8.128906 -5.753906 7.445312 -5.890625 6.625 -6.171875 L 2.5 -7.578125 L 5.203125 -3.359375 C 5.046875 -3.210938 4.816406 -3.003906 4.515625 -2.734375 C 4.222656 -2.472656 3.90625 -2.234375 3.5625 -2.015625 C 3.226562 -1.796875 2.910156 -1.625 2.609375 -1.5 C 2.304688 -1.375 2.015625 -1.320312 1.734375 -1.34375 C 1.453125 -1.363281 1.179688 -1.457031 0.921875 -1.625 C 0.671875 -1.800781 0.425781 -2.082031 0.1875 -2.46875 L -8.4375 -15.9375 C -8.28125 -16.09375 -8.050781 -16.300781 -7.75 -16.5625 C -7.457031 -16.832031 -7.140625 -17.078125 -6.796875 -17.296875 C -6.460938 -17.503906 -6.144531 -17.675781 -5.84375 -17.8125 C -5.550781 -17.945312 -5.265625 -18.003906 -4.984375 -17.984375 C -4.703125 -17.960938 -4.429688 -17.859375 -4.171875 -17.671875 C -3.921875 -17.492188 -3.671875 -17.210938 -3.421875 -16.828125 L 0.5 -10.703125 L 1.875 -17.359375 C 2.675781 -17.867188 3.4375 -18.097656 4.15625 -18.046875 C 4.875 -18.003906 5.40625 -17.710938 5.75 -17.171875 C 5.894531 -16.929688 5.988281 -16.691406 6.03125 -16.453125 C 6.082031 -16.210938 6.09375 -15.941406 6.0625 -15.640625 C 6.03125 -15.335938 5.957031 -14.988281 5.84375 -14.59375 C 5.726562 -14.207031 5.601562 -13.757812 5.46875 -13.25 L 4.84375 -11.21875 Z M 10.9375 -9.890625 "/></g></g><g style="fill:#000000;fill-opacity:1;"><g transform="translate(351.099791, 189.007069)"><path style="stroke:none" d=""/></g></g><g style="fill:#000000;fill-opacity:1;"><g transform="translate(356.273644, 184.334916)"><path style="stroke:none" d="M -6.421875 -20.53125 C -6.179688 -20.53125 -5.890625 -20.476562 -5.546875 -20.375 C -5.203125 -20.269531 -4.878906 -20.117188 -4.578125 -19.921875 C -3.984375 -19.523438 -3.640625 -19.113281 -3.546875 -18.6875 C -3.460938 -18.269531 -3.566406 -17.847656 -3.859375 -17.421875 L -7.0625 -12.59375 L -4.46875 -10.859375 L -1.125 -15.890625 C -0.875 -15.898438 -0.582031 -15.851562 -0.25 -15.75 C 0.0820312 -15.65625 0.398438 -15.507812 0.703125 -15.3125 C 1.285156 -14.914062 1.617188 -14.503906 1.703125 -14.078125 C 1.785156 -13.660156 1.6875 -13.238281 1.40625 -12.8125 L -1.265625 -8.796875 L 3.578125 -5.578125 C 3.503906 -5.367188 3.367188 -5.066406 3.171875 -4.671875 C 2.984375 -4.285156 2.773438 -3.921875 2.546875 -3.578125 C 2.304688 -3.222656 2.070312 -2.925781 1.84375 -2.6875 C 1.613281 -2.457031 1.367188 -2.296875 1.109375 -2.203125 C 0.847656 -2.109375 0.5625 -2.097656 0.25 -2.171875 C -0.0507812 -2.253906 -0.398438 -2.425781 -0.796875 -2.6875 L -10.78125 -9.34375 C -11.445312 -9.78125 -11.84375 -10.3125 -11.96875 -10.9375 C -12.101562 -11.570312 -11.953125 -12.21875 -11.515625 -12.875 Z M -6.421875 -20.53125 "/></g></g><g style="fill:#000000;fill-opacity:1;"><g transform="translate(364.754079, 170.559202)"><path style="stroke:none" d="M -15.578125 -7.28125 C -16.222656 -7.53125 -16.6875 -7.957031 -16.96875 -8.5625 C -17.257812 -9.164062 -17.269531 -9.828125 -17 -10.546875 C -16.726562 -11.265625 -16.285156 -11.757812 -15.671875 -12.03125 C -15.054688 -12.3125 -14.425781 -12.328125 -13.78125 -12.078125 C -13.125 -11.835938 -12.648438 -11.410156 -12.359375 -10.796875 C -12.078125 -10.179688 -12.070312 -9.515625 -12.34375 -8.796875 C -12.613281 -8.078125 -13.054688 -7.582031 -13.671875 -7.3125 C -14.285156 -7.050781 -14.921875 -7.039062 -15.578125 -7.28125 Z M 2.15625 -5.84375 C 2.132812 -5.644531 2.082031 -5.347656 2 -4.953125 C 1.914062 -4.566406 1.800781 -4.179688 1.65625 -3.796875 C 1.519531 -3.421875 1.367188 -3.085938 1.203125 -2.796875 C 1.046875 -2.515625 0.847656 -2.300781 0.609375 -2.15625 C 0.378906 -2.007812 0.109375 -1.929688 -0.203125 -1.921875 C -0.515625 -1.910156 -0.882812 -1.988281 -1.3125 -2.15625 L -11.828125 -6.109375 C -11.785156 -6.296875 -11.726562 -6.585938 -11.65625 -6.984375 C -11.582031 -7.378906 -11.472656 -7.765625 -11.328125 -8.140625 C -11.179688 -8.523438 -11.023438 -8.859375 -10.859375 -9.140625 C -10.691406 -9.429688 -10.492188 -9.644531 -10.265625 -9.78125 C -10.035156 -9.925781 -9.765625 -10.003906 -9.453125 -10.015625 C -9.148438 -10.023438 -8.785156 -9.953125 -8.359375 -9.796875 Z M 2.15625 -5.84375 "/></g></g><g style="fill:#000000;fill-opacity:1;"><g transform="translate(368.235788, 161.860722)"><path style="stroke:none" d="M -11.03125 -2.203125 C -11.707031 -2.429688 -12.234375 -2.789062 -12.609375 -3.28125 C -12.992188 -3.769531 -13.144531 -4.332031 -13.0625 -4.96875 C -12.976562 -5.570312 -12.765625 -6.019531 -12.421875 -6.3125 C -12.085938 -6.601562 -11.628906 -6.914062 -11.046875 -7.25 L -8.515625 -8.6875 L -12.078125 -12.140625 C -11.941406 -13.140625 -11.65625 -13.90625 -11.21875 -14.4375 C -10.789062 -14.976562 -10.269531 -15.207031 -9.65625 -15.125 C -9.425781 -15.09375 -9.21875 -15.03125 -9.03125 -14.9375 C -8.851562 -14.851562 -8.671875 -14.734375 -8.484375 -14.578125 C -8.304688 -14.421875 -8.101562 -14.222656 -7.875 -13.984375 C -7.644531 -13.753906 -7.378906 -13.484375 -7.078125 -13.171875 L -5.296875 -11.078125 L -0.0625 -14.015625 C 0.613281 -13.828125 1.117188 -13.476562 1.453125 -12.96875 C 1.785156 -12.457031 1.910156 -11.878906 1.828125 -11.234375 C 1.722656 -10.554688 1.445312 -10.039062 1 -9.6875 C 0.5625 -9.332031 0.046875 -9 -0.546875 -8.6875 L -2.84375 -7.484375 L 0.78125 -4.15625 C 0.769531 -4.0625 0.757812 -3.957031 0.75 -3.84375 C 0.75 -3.738281 0.742188 -3.648438 0.734375 -3.578125 C 0.609375 -2.648438 0.328125 -1.96875 -0.109375 -1.53125 C -0.554688 -1.101562 -1.066406 -0.925781 -1.640625 -1 C -2.078125 -1.0625 -2.453125 -1.21875 -2.765625 -1.46875 C -3.078125 -1.726562 -3.484375 -2.15625 -3.984375 -2.75 L -6.25 -5.265625 Z M -11.03125 -2.203125 "/></g></g></g></svg>